<svg xmlns="http://www.w3.org/2000/svg" width="233" height="233" viewBox="0 0 233 233">
  <g fill="none" fill-rule="evenodd">
    <rect width="233" height="233" fill="#01A0E9" rx="23"/>
    <path fill="#FFF" fill-rule="nonzero" d="M128.339881,100.15826 C142.120644,75.117778 147.131497,51.3312919 147.131497,51.3312919 L144.625612,51.3312919 L123.329028,51.3312919 L100.779502,51.3312919 L100.779502,33.8026331 L155.900718,33.8026331 L155.900718,26.2914974 L100.779732,26.2914974 L100.779732,0 L75.7247799,0 L75.7247799,26.2914976 L25.6146461,26.2914974 L25.6146461,33.8026331 L75.7245505,33.8026331 L75.7245505,51.3312919 L33.1306956,51.3312919 L33.1306956,58.8428862 L119.571118,58.8428862 C119.571118,60.095048 119.571118,60.095048 118.317946,61.3462922 C118.317946,70.1100482 112.054839,82.6305188 107.043527,92.6457486 C43.1530895,67.6061835 24.3614738,82.6305188 19.3506208,85.1341543 C-23.242316,115.18122 16.8456535,152.740567 23.1096783,151.488406 C68.2089594,161.504323 97.0213629,142.724649 117.065921,118.937017 C118.317946,120.189179 119.571118,120.189179 120.82429,120.189179 C134.604595,127.700773 201,159 201,159 L201,121.44134 C190.977377,121.44134 154.647776,108.922016 128.339881,100.15826 Z M95.768191,111.425422 C64.4494433,151.488406 26.8678182,138.969081 20.6035637,136.464529 C5.57123498,132.708731 0.559923213,105.165302 19.350621,96.4017751 C50.6693688,86.3865453 78.2302063,97.6539368 98.2743058,107.669855 C97.0211337,110.173261 95.768191,111.425422 95.768191,111.425422 Z" transform="translate(32 37)"/>
  </g>
</svg>
