<svg xmlns="http://www.w3.org/2000/svg" width="300" height="300" viewBox="0 0 300 300">
  <path fill="#0087C9" d="M63,214 C54.6190477,214 47,207.25 47,199 C47,190.75 53.8571429,184 63,184 C72.1428571,184 79,190.75 79,199 C79,207.25 71.3809523,214 63,214 Z M257.479566,131.563107 C255.968961,119.446602 248.415934,109.601942 238.597,102.029126 L234.820486,99 L231.799276,102.786408 C225.756854,109.601942 223.490947,121.718447 224.246249,130.805826 C225.001552,137.621359 227.267459,144.436893 231.043973,149.737865 C228.022762,151.252428 224.246249,152.76699 221.225039,154.281553 C214.427315,156.553398 207.629591,157.310679 200.831867,157.310679 L5.20848422,157.310679 L4.45318158,161.854369 C2.94257631,176.242719 5.20848422,191.388349 11.2509053,205.019418 L14.2721159,210.320388 L14.2721159,211.07767 C32.3993793,241.368933 64.8773927,255 100.376617,255 C168.353854,255 224.246249,225.46602 250.681842,161.854369 C268.053803,162.611651 285.425763,158.067962 293.734092,141.407767 L296,137.621359 L292.223487,135.349515 C282.404552,129.291262 268.809105,128.533981 257.479566,131.563107 Z M160,120 L131,120 L131,149 L160,149 L160,120 Z M160,83 L131,83 L131,112 L160,112 L160,83 Z M160,45 L131,45 L131,74 L160,74 L160,45 Z M196,120 L167,120 L167,149 L196,149 L196,120 Z M86,120 L57,120 L57,149 L86,149 L86,120 Z M123,120 L94,120 L94,149 L123,149 L123,120 Z M50,120 L21,120 L21,149 L50,149 L50,120 Z M123,83 L94,83 L94,112 L123,112 L123,83 Z M86,83 L57,83 L57,112 L86,112 L86,83 Z"/>
</svg>
