<svg xmlns="http://www.w3.org/2000/svg" width="64" height="143" viewBox="0 0 64 143">
  <g fill="none">
    <path fill="#FFF" d="M35.0534362,142.317005 L31.2699893,141.024486 C31.2699893,141.024486 31.7319117,121.737713 24.8108459,120.353673 C20.1968021,115.001416 25.5490584,-106.659184 42.1592709,119.61546 C42.1592709,119.61546 36.43834,122.475926 35.4229741,127.367123 C34.3152237,132.165936 35.0534362,142.317005 35.0534362,142.317005 Z"/>
    <path fill="#A6A385" d="M35.0534362,142.317005 L31.2699893,141.024486 C31.2699893,141.024486 31.7319117,121.737713 24.8108459,120.353673 C20.1968021,115.001416 25.5490584,-106.659184 42.1592709,119.61546 C42.1592709,119.61546 36.43834,122.475926 35.4229741,127.367123 C34.3152237,132.165936 35.0534362,142.317005 35.0534362,142.317005 Z"/>
    <path fill="#FFF" d="M37.0841679,123.676061 C37.0841679,123.676061 70.2130718,101.897497 62.461409,56.5867926 C54.9868998,23.6426576 37.360458,12.8457605 35.422974,8.69277572 C33.3007211,5.7399258 31.2699892,0.572438448 31.2699892,0.572438448 L32.6548931,92.2074874 C32.6548931,92.2998718 29.7935642,120.261288 37.0841679,123.676061"/>
    <path fill="#499D4A" d="M37.0841679,123.676061 C37.0841679,123.676061 70.2130718,101.897497 62.461409,56.5867926 C54.9868998,23.6426576 37.360458,12.8457605 35.422974,8.69277572 C33.3007211,5.7399258 31.2699892,0.572438448 31.2699892,0.572438448 L32.6548931,92.2074874 C32.6548931,92.2998718 29.7935642,120.261288 37.0841679,123.676061"/>
    <path fill="#FFF" d="M29.332506,124.875332 C29.332506,124.875332 -1.76652951,103.650212 0.0794333896,66.2768026 C1.8321484,28.9025296 23.7954806,10.5387386 28.0399866,7.21635076 C30.8089308,4.26350084 30.9013154,3.15575042 31.0860844,0.202900506 C33.0235682,4.35588532 32.6548938,62.3085868 32.9311838,69.1372682 C33.7617808,95.4374908 31.4547588,119.892614 29.332506,124.875332 Z"/>
    <path fill="#58AA50" d="M29.332506,124.875332 C29.332506,124.875332 -1.76652951,103.650212 0.0794333896,66.2768026 C1.8321484,28.9025296 23.7954806,10.5387386 28.0399866,7.21635076 C30.8089308,4.26350084 30.9013154,3.15575042 31.0860844,0.202900506 C33.0235682,4.35588532 32.6548938,62.3085868 32.9311838,69.1372682 C33.7617808,95.4374908 31.4547588,119.892614 29.332506,124.875332 Z"/>
  </g>
</svg>
