<svg xmlns="http://www.w3.org/2000/svg" width="77" height="76" viewBox="0 0 77 76">
  <path fill="#E0234E" d="M45.6128429,1.73693566e-15 C45.061072,1.73693566e-15 44.5487777,0.118129041 44.0759604,0.276036133 C45.0806597,0.945936126 45.6324307,1.83280769 45.9081655,2.83780838 C45.9280545,2.97582648 45.9675314,3.07436778 45.9874204,3.2123858 C46.0070082,3.33051485 46.0265958,3.44864381 46.0265958,3.56707417 C46.1055494,5.30103925 45.5733662,5.5180109 45.1990901,6.54259926 C44.6274301,7.86311281 44.7850358,9.28186634 45.4748249,10.4248851 C45.5338894,10.5629032 45.612843,10.7205089 45.7113842,10.8588284 C44.9625307,5.87269927 49.1205513,5.12414712 49.8892939,3.56707417 C49.9483584,2.2073852 48.8252287,1.30092581 47.9383572,0.670201308 C47.0909623,0.157907167 46.3222197,0 45.6128429,0 Z M51.8797074,1.12343097 C51.8007539,1.57666062 51.8598184,1.45823027 51.840532,1.69478966 C51.8206429,1.85239544 51.8206429,2.04947803 51.8010552,2.20708381 C51.7615784,2.36499097 51.7221017,2.52259675 51.6630372,2.68020253 C51.6238618,2.8378083 51.5644959,2.99541415 51.5054313,3.15332132 C51.4264778,3.3109271 51.3674132,3.44864381 51.2884597,3.60655098 C51.2293952,3.68520321 51.1899184,3.76415676 51.1308539,3.84280899 L51.0127249,4.02030383 C50.9141836,4.15832193 50.8156423,4.29603864 50.717101,4.414469 C50.5986707,4.53259804 50.5001294,4.67061607 50.3624126,4.76915736 L50.3624126,4.78874511 C50.2439823,4.88728641 50.1258532,5.00571676 49.9878352,5.10425806 C49.5740823,5.41946968 49.1009635,5.65572769 48.6676229,5.95165289 C48.5296048,6.05019418 48.3915868,6.12884641 48.2734578,6.24697538 C48.1354397,6.34581799 48.0173107,6.44405797 47.8988803,6.56248832 C47.7608622,6.68061736 47.6623209,6.79904772 47.544192,6.93676443 C47.4456507,7.05519479 47.3272203,7.1929115 47.2488694,7.33092961 C47.1500268,7.46894771 47.0514855,7.60696574 46.9728333,7.74498385 C46.8938797,7.90258962 46.8348152,8.04030634 46.7558616,8.1982135 C46.6967971,8.35581928 46.6377326,8.49353599 46.5982559,8.65144316 C46.5456785,8.81376659 46.4996354,8.97813429 46.4602377,9.14414963 C46.44065,9.22280186 46.44065,9.32134315 46.4210623,9.4002967 C46.4011733,9.47894893 46.4011733,9.55790248 46.3815855,9.6368561 C46.3815855,9.79446187 46.3616965,9.9716554 46.3616965,10.1292612 C46.3616965,10.2476915 46.3616965,10.3658206 46.3815855,10.4842509 C46.3815855,10.6418567 46.4011733,10.7994626 46.4406501,10.976656 C46.4605391,11.1345632 46.4997146,11.292169 46.5391914,11.4497748 C46.5982559,11.6073806 46.6377327,11.7649864 46.6967971,11.9228935 C46.736274,12.0211335 46.7953384,12.1196747 46.8348152,12.1986283 L42.3025185,10.4447741 C41.5337759,10.2278025 40.7849224,10.0307199 40.0161798,9.85352636 L38.7746198,9.55790255 C37.588595,9.32134601 36.3915718,9.14373358 35.1879579,9.02571927 C35.1487824,9.02571927 35.1288934,9.00613153 35.0894166,9.00613153 C33.9172574,8.88803159 32.7399128,8.82879224 31.5618191,8.82863669 C30.6948366,8.82863669 29.8275527,8.86781211 28.9801578,8.92717798 C27.7780746,9.00613153 26.5759914,9.16373738 25.3739082,9.36081996 C25.0785857,9.39999539 24.7826605,9.45936126 24.4873379,9.51842574 C23.8762011,9.63655478 23.2849533,9.77457281 22.7135947,9.91259092 L21.8267231,10.1491502 C21.5314006,10.2672793 21.2553644,10.4052973 20.9793282,10.5234264 L20.329016,10.8190502 C20.2898406,10.8389393 20.2500624,10.8389393 20.2304747,10.8582257 C20.0333921,10.9570683 19.8561986,11.0360219 19.679005,11.1342619 C19.6196392,11.1541509 19.5801624,11.1737387 19.5406856,11.1936277 C19.3240153,11.292169 19.107345,11.410298 18.9298502,11.5088393 C18.7918321,11.5679038 18.6538141,11.6468574 18.535685,11.7059219 C18.4766205,11.7450973 18.3976669,11.7848754 18.3584915,11.8044632 C18.1809967,11.9030045 18.0035017,12.0015458 17.8461974,12.0997857 C17.6684011,12.1986283 17.5110967,12.2971696 17.3730786,12.3957109 C17.2350605,12.4942522 17.0970424,12.5729045 16.9789135,12.6714457 C16.9590244,12.6913347 16.939738,12.6913347 16.9198489,12.7106212 C16.8014185,12.7898761 16.6637018,12.8884174 16.5452715,12.9866573 L16.5060961,13.0261341 L16.2104722,13.2626934 C16.1709954,13.2822812 16.1315186,13.3217579 16.0920418,13.3416471 C15.9935005,13.4202993 15.8949592,13.5188406 15.7967193,13.5977941 C15.7768302,13.6369695 15.7373534,13.6568586 15.7177657,13.6764464 C15.5993353,13.7948767 15.4812063,13.893418 15.362776,14.011547 C15.3431882,14.011547 15.3431882,14.031436 15.3236005,14.0507224 C15.2051702,14.149565 15.0870411,14.267694 14.9689122,14.3858231 C14.9490231,14.4057121 14.9490231,14.4252999 14.9294354,14.4252999 C14.8308941,14.5238412 14.7323528,14.6223825 14.6338115,14.7405114 C14.5946361,14.7799883 14.5352702,14.819465 14.4957934,14.8589418 C14.3972522,14.9770708 14.2788218,15.0955012 14.1609941,15.2136302 C14.1411051,15.2528056 14.1016283,15.2726947 14.0820405,15.3121715 C13.9244347,15.4697772 13.7864166,15.6273831 13.6288109,15.7852903 L13.5697464,15.8443547 C13.2542334,16.179154 12.9191327,16.5142547 12.5644444,16.8098786 C12.2150854,17.1216609 11.8465145,17.4112236 11.4609025,17.6768611 C11.0786941,17.9448775 10.6840931,18.1947714 10.278407,18.4257147 C9.87618501,18.646347 9.4616524,18.8437531 9.03684695,19.0169624 C8.61776793,19.1951124 8.19036224,19.3530011 7.75611152,19.4900811 C6.92830444,19.6672747 6.08090961,20.0023753 5.35164374,20.0614398 C5.19403796,20.0614398 5.01684444,20.1009167 4.85923866,20.1205043 C4.68174382,20.1599811 4.52413797,20.1994579 4.36653219,20.2389347 L3.89341347,20.4161282 C3.7358077,20.4754941 3.57820185,20.5541463 3.42029475,20.6330999 C3.28257804,20.7316411 3.12497226,20.8102934 2.98695416,20.9088347 C2.84893605,21.007376 2.71091803,21.1258063 2.59278898,21.2439354 C2.45477088,21.3424767 2.31705417,21.4804948 2.19862381,21.5986237 C2.08049477,21.7366418 1.96206441,21.8547708 1.86352312,21.9927889 C1.76528314,22.1503947 1.64685278,22.2884128 1.56820063,22.4460186 C1.46965933,22.5840367 1.37111804,22.7416424 1.29216449,22.8992482 C1.21321095,23.0767431 1.13455872,23.2343489 1.07519284,23.4115424 C1.01308483,23.5812392 0.954010909,23.7520311 0.89799932,23.9238366 C0.8588239,24.0817437 0.819045774,24.2393495 0.799458026,24.3969553 C0.799458026,24.4168444 0.779870279,24.4364321 0.779870279,24.4563212 C0.740393468,24.6335147 0.740393468,24.870074 0.720504405,24.9882031 C0.700916658,25.1262212 0.681328985,25.2443501 0.681328985,25.3823682 C0.681328985,25.4613218 0.681328985,25.5598631 0.700916733,25.6385153 C0.720805796,25.7765334 0.740092153,25.8946624 0.779870279,26.0130927 C0.819045699,26.1312218 0.858823825,26.2496521 0.917888383,26.3677811 L0.917888383,26.3876702 C0.976952866,26.5057993 1.0556051,26.6239282 1.13455864,26.7423586 C1.21351219,26.8604876 1.29216442,26.9786166 1.39070571,27.097047 C1.48924701,27.1955883 1.60767736,27.3140186 1.7258064,27.4122585 C1.84393545,27.5303876 1.9623658,27.6292302 2.10008252,27.7274701 C2.57320124,28.1415244 2.69133028,28.2792411 3.3024671,28.594754 C3.4010084,28.6538185 3.49954969,28.6932953 3.61767866,28.7523598 C3.6372664,28.7523598 3.65685408,28.7719476 3.67674314,28.7719476 C3.67674314,28.8114244 3.67674314,28.8313134 3.6966322,28.8704889 C3.71621995,29.028396 3.75569669,29.1860018 3.7951735,29.3436076 C3.83434892,29.5208011 3.89371479,29.6787083 3.95277935,29.8167263 C4.01184383,29.9348553 4.05132064,30.0529843 4.11038512,30.1714147 C4.12997287,30.2105902 4.14956054,30.250067 4.16944961,30.2696546 C4.24840315,30.4275618 4.32705538,30.5652785 4.40600901,30.7035979 L4.7013315,31.1173509 C4.8001741,31.2354799 4.91830315,31.3734979 5.0367335,31.4916269 C5.15486254,31.6097559 5.27299151,31.7085985 5.41100961,31.8267276 C5.41100961,31.8267276 5.43089868,31.8463153 5.45018503,31.8463153 C5.56861539,31.9448566 5.68674443,32.0433979 5.80517479,32.1223515 C5.94319289,32.2208928 6.08090961,32.299545 6.23881677,32.3784985 C6.37653349,32.4574521 6.53413926,32.5361043 6.69204643,32.5954702 C6.81017547,32.6542334 6.9481935,32.6937102 7.08621161,32.7331869 C7.10579935,32.753076 7.12538703,32.753076 7.16486376,32.7723623 C7.24381731,32.7922514 7.3423586,32.8118391 7.42101091,32.8317282 C7.36194642,33.8957934 7.34235868,34.9010953 7.49996445,35.2557837 C7.67745929,35.6499489 8.54444187,34.4475643 9.41142445,33.0679862 C9.29329541,34.4279766 9.21434187,36.0242249 9.41142445,36.4973437 C9.6283961,36.9900502 10.8108916,35.4528663 11.8354799,33.7580766 C25.8078515,30.5261031 38.5582508,40.1825469 39.8983521,53.8198178 C39.6422051,51.6913862 37.0210669,50.509192 35.8189837,50.8045146 C35.227736,52.2627449 34.2227354,54.1350294 32.6065979,55.2976358 C32.744616,53.9970113 32.6855514,52.65691 32.4095153,51.3559842 C31.9758733,53.1692042 31.1287799,54.8636926 29.9658721,56.3222242 C28.0935876,56.4602423 26.2216044,55.5537829 25.2361914,54.1940939 C25.1572379,54.1350294 25.1376502,54.0165991 25.0785857,53.9379468 C25.0195212,53.7999287 24.9604566,53.6619107 24.9209799,53.5238926 C24.8634561,53.3917917 24.8236348,53.2526707 24.8025495,53.1101398 C24.7829618,52.9721217 24.7829618,52.8344049 24.7829618,52.6764978 L24.7829618,52.3811753 C24.8025495,52.2431572 24.8420263,52.1051392 24.8815031,51.967121 C24.9206785,51.8291029 24.9604566,51.6913862 25.0195212,51.5533681 C25.0981734,51.41535 25.1572379,51.277332 25.2557792,51.1396153 C25.5908799,50.1933778 25.5908799,49.4249366 24.9800444,48.9717068 C24.8616713,48.8943615 24.7362547,48.8283741 24.6054669,48.7746242 C24.5268147,48.7547352 24.4282734,48.7155597 24.3493199,48.6956707 C24.2902554,48.6760829 24.2507786,48.6564953 24.191714,48.6366062 C24.0536959,48.5974308 23.9156779,48.5576527 23.7779612,48.5380649 C23.6433742,48.499158 23.5040045,48.4792771 23.3639069,48.4790004 C23.2261902,48.4591114 23.0685845,48.439825 22.9305663,48.4398249 C22.8320251,48.4398249 22.7334838,48.4594127 22.6349425,48.4594127 C22.4773367,48.4594127 22.3393186,48.4790004 22.2013005,48.5184772 C22.0632824,48.5380649 21.9255657,48.5576526 21.7875476,48.5974308 C21.6495295,48.6366062 21.5115115,48.676083 21.3737947,48.7351475 C21.2357766,48.7945134 21.1176476,48.8535779 20.9796296,48.9126423 C20.8611993,48.9717068 20.7430702,49.0506604 20.6050521,49.1097249 C16.0133896,52.1051391 18.7526567,59.1205558 21.8857875,61.1507475 C20.7035934,61.3677191 19.5015102,61.6238662 19.1664095,61.8800133 L19.1272341,61.9191887 C19.9746289,62.4314828 20.8611992,62.8654261 21.7875476,63.2397023 C23.0486954,63.6534552 24.3887966,64.0277313 24.9800444,64.1856385 L24.9800444,64.2052261 C26.6128374,64.5400261 28.2824838,64.6592721 29.9462844,64.5599146 C38.6763799,63.9490791 45.830116,57.3076372 47.1307404,48.5582553 C47.1699159,48.7354488 47.209694,48.8930546 47.2488694,49.0705495 C47.3079339,49.4252379 47.3868875,49.7998153 47.4263643,50.1740914 L47.4263643,50.1936792 C47.4655397,50.371174 47.4854288,50.5483675 47.5053179,50.7059733 L47.5053179,50.7849269 C47.5249056,50.9624218 47.5444933,51.1396153 47.5444933,51.2972211 C47.5643824,51.5141927 47.5836687,51.7311644 47.5836688,51.9478347 L47.5836688,52.2630462 C47.5836688,52.3615875 47.6035579,52.4800179 47.6035579,52.5782579 C47.6035579,52.6966882 47.5839701,52.8148173 47.5839701,52.9329462 L47.5839701,53.2089824 C47.5839701,53.3470005 47.564081,53.4651294 47.564081,53.6031475 C47.564081,53.6821011 47.564081,53.7607533 47.5444933,53.8592946 C47.5444933,53.9973127 47.5246042,54.1353307 47.5246042,54.2929366 C47.5050165,54.3520011 47.5050165,54.4110656 47.5050166,54.4701301 C47.4851275,54.6280373 47.4658411,54.765754 47.445952,54.9233598 C47.445952,54.9827257 47.445952,55.0417901 47.4260629,55.1008546 C47.4064752,55.2979372 47.3669985,55.475432 47.3474107,55.6725146 L47.3474107,55.7119914 C47.3079339,55.889185 47.2684572,56.0862676 47.2289803,56.2634611 L47.2289803,56.3228269 L47.1108514,56.8550102 C47.1108514,56.8745979 47.0909623,56.9140746 47.0909623,56.9336624 C47.0517869,57.1111572 47.0123101,57.2883508 46.9532456,57.4658456 L46.9532456,57.5249102 C46.8938797,57.7219927 46.8348152,57.8994876 46.7953384,58.0766811 C46.7757507,58.0965702 46.7757507,58.1158565 46.7757507,58.1158565 L46.5982559,58.7074056 C46.5196036,58.9044882 46.4605391,59.0816817 46.3815855,59.2787643 C46.302632,59.4758469 46.2435674,59.6729295 46.1646139,59.8504243 C46.0859616,60.0475069 46.0070081,60.2247004 45.9283559,60.421783 L45.9084668,60.421783 C45.8298146,60.5992779 45.750861,60.7963604 45.6523197,60.973554 C45.632732,61.0329198 45.6131443,61.0720953 45.5932552,61.1115721 C45.5733662,61.1314611 45.5733662,61.1507475 45.5540797,61.1706366 C44.2730429,63.7522979 42.3808694,66.0184462 40.0161798,67.7921894 C39.858574,67.8907307 39.7009682,68.0091611 39.543061,68.12729 C39.5038856,68.1664655 39.444821,68.1863545 39.4053443,68.2258313 C39.2673262,68.3243726 39.1293081,68.4229139 38.9717024,68.5211539 L39.0307668,68.6395843 L39.0506559,68.6395843 L39.878463,68.5214552 L39.8980507,68.5214552 C40.4103449,68.4425017 40.9226391,68.3439604 41.4352346,68.2454191 C41.5732527,68.2258313 41.7305571,68.1863546 41.8688765,68.1468778 C41.9674178,68.12729 42.0460701,68.1077024 42.1446114,68.0878133 C42.2826295,68.0682256 42.4206475,68.0287488 42.5586656,68.0091611 C42.6767946,67.9696843 42.7949236,67.9497952 42.913354,67.9106198 C44.8841798,67.4375011 46.7956398,66.7871888 48.6284475,66.0187475 C45.4950153,70.2948971 41.2975179,73.7438423 36.3903424,76.010292 C38.6564907,75.8523848 40.9226391,75.4781087 43.1104365,74.8473842 C51.052503,72.5022823 57.7331203,67.1617662 61.7335352,59.9685534 C60.9214975,64.5313787 59.1113406,68.8584264 56.4324959,72.6403004 C58.3423108,71.3804497 60.1068965,69.9131957 61.6940584,68.2653082 C66.1088288,63.6537566 69.0057017,57.8009463 69.9911146,51.514494 C70.6633098,54.6333215 70.8559772,57.8364175 70.5624733,61.0133321 C84.790992,41.1682612 71.7449688,20.5933217 66.2863237,15.1750575 C66.2664346,15.135882 66.2465456,15.115993 66.2465456,15.0765162 C66.2269578,15.0964052 66.2269578,15.0964052 66.2269578,15.115993 C66.2269578,15.0961039 66.2269578,15.0961039 66.2070687,15.0768176 C66.2070687,15.3130756 66.187481,15.549635 66.1678933,15.785893 C66.1088288,16.239424 66.049463,16.6727646 65.9708107,17.1064065 C65.8722694,17.5400485 65.7538391,17.9733891 65.63571,18.407031 C65.4953523,18.8337193 65.3375128,19.2544571 65.1625913,19.6681788 C64.9815598,20.0766178 64.7844232,20.477727 64.5716449,20.8705633 C64.3546733,21.2448394 64.1184153,21.6390046 63.8619668,21.9936929 C63.6086354,22.3602516 63.3391649,22.7153896 63.0543501,23.0580594 C62.7584249,23.4127478 62.4432133,23.7279594 62.1280017,24.0434723 C61.942363,24.2132281 61.7517257,24.3774355 61.5563417,24.5358774 C61.3987359,24.6738955 61.2610192,24.7920245 61.103112,24.9300426 C60.7484236,25.2060787 60.3937353,25.4622259 59.9995701,25.6984839 C59.6249927,25.9350433 59.2311288,26.1716026 58.8369637,26.3686852 C58.4229095,26.5657678 58.0091566,26.7432626 57.5954037,26.9204561 C57.1813495,27.0780619 56.7480089,27.21608 56.3143669,27.3345104 C55.8785939,27.4516778 55.4380225,27.5502082 54.9938533,27.6298329 C54.5406237,27.7087864 54.087394,27.7482632 53.653752,27.78774 C53.3385404,27.8073278 53.0233289,27.8269155 52.7078159,27.8269155 C52.2545862,27.8269155 51.8013566,27.78774 51.368016,27.7482632 C50.9144849,27.7087864 50.4612553,27.6497219 50.0279147,27.5511806 C49.574685,27.4722271 49.1410431,27.354098 48.7074011,27.21608 L48.6878134,27.21608 C49.121154,27.1769046 49.554796,27.1371265 49.9884379,27.0584742 C50.4329311,26.9808415 50.8734959,26.8821896 51.3086501,26.7628504 C51.742106,26.6457434 52.1696215,26.5076633 52.5896869,26.3490974 C53.0233289,26.1911903 53.4370817,25.9941077 53.8312469,25.7970252 C54.2449997,25.5999426 54.6195772,25.3832723 55.0137424,25.1467129 C55.3880185,24.8905659 55.7625959,24.6344188 56.1172843,24.3586839 C56.4703642,24.0842022 56.8060136,23.7880055 57.1222849,23.4718123 C57.4573856,23.1761884 57.7530094,22.8410878 58.0486334,22.5059871 C58.3366748,22.1609621 58.6126757,21.8060608 58.8761391,21.441922 C58.9156159,21.3828575 58.9550927,21.3039039 58.9945695,21.2448394 C59.1916521,20.9296278 59.3887347,20.6141149 59.5659282,20.2989033 C59.7826665,19.9080766 59.979989,19.5067939 60.1571759,19.0965187 C60.3352913,18.6841801 60.4931852,18.2633979 60.6302947,17.8356723 C60.7680114,17.4216181 60.8665527,16.9882775 60.965094,16.5546356 C61.0440475,16.1014059 61.1226997,15.6677639 61.1621766,15.2341219 C61.201352,14.7808923 61.2411301,14.3276626 61.2411301,13.894322 C61.2411301,13.5788091 61.221241,13.2635975 61.2019547,12.9480846 C61.1624779,12.4948549 61.1031121,12.0615143 61.0440475,11.6278723 C60.9665124,11.1833845 60.8679611,10.7428198 60.748725,10.3076601 C60.6104056,9.89360587 60.4726889,9.46026528 60.3147817,9.04621104 C60.1571759,8.63245819 59.9600934,8.21870527 59.7633121,7.8245401 C59.5463404,7.43037492 59.3293688,7.03620975 59.0931108,6.66163232 C58.8369637,6.28735621 58.5808166,5.93236653 58.3047804,5.57797948 C58.0094579,5.24287879 57.7135327,4.90777817 57.3983211,4.57267748 C57.2323281,4.40355159 57.0614924,4.23924781 56.8860269,4.07997101 C56.0031686,3.39443992 55.0891048,2.75007018 54.1467598,2.14892334 C54.0087417,2.0699698 53.8906127,2.01090524 53.7525946,1.95184076 C53.1022824,1.53778652 52.4911456,1.32111626 51.8803101,1.12403367 L51.8797074,1.12343097 Z"/>
</svg>
