<svg xmlns="http://www.w3.org/2000/svg" width="77" height="76" viewBox="0 0 77 76">
  <g fill="#494949" transform="translate(0 5)">
    <path d="M17.1,35.748155 L19,32.4983114 L28.5,48.7475296 L9.5,48.7475296 L17.1,35.748155 L9.5,48.7477796 L0,32.4982487 L9.5,16.2490306 L19.000095,0 L37.9997784,0 L34.199905,6.49968727 L37.999905,0 L47.5002216,16.2492182 L28.5,16.2492182 L9.5001097,16.2492182 L19,32.4982487 L17.1,35.748155 Z M43.0436464,56.3714651 L38,65 L28.5,48.7475296 L47.5,48.7476545 L43.0436464,56.3714651 L47.5002216,48.7475296 L56.999905,65 L37.999905,64.9998749 L43.0436464,56.3714651 Z M57,32.4982487 L66.5,16.2490306 L76,32.4982487 L57,32.4982487 Z M28.5,16.2490931 L19,32.4983114 L9.5,16.2490931 L28.5,16.2490931 Z M37.999905,0 L56.999905,0 L66.499905,16.2492182 L47.5002216,16.2492182 L37.999905,0 Z M66.5,16.2490931 L57,32.4983114 L47.5,16.2490931 L66.5,16.2490931 Z M9.499905,48.7476545 L28.499905,48.7476545 L37.999905,65 L19.0002217,65 L9.499905,48.7476545 Z"/>
    <polygon points="33.75 41 29 33 33.75 25 43.25 25 48 33 43.25 41"/>
  </g>
</svg>
