<svg xmlns="http://www.w3.org/2000/svg" width="87" height="53" viewBox="0 0 87 53">
  <g>
    <path d="M20.4986169,13.8359705 L36.8159239,13.8359705 L36.8159239,15.1425843 L21.99437,15.1425843 L21.99437,24.9765724 L35.9320697,24.9765724 L35.9320697,26.2831861 L21.99437,26.2831861 L21.99437,37.0799423 L36.9858958,37.0799423 L36.9858958,38.3865561 L20.4986169,38.3865561 L20.4986169,13.8359705 Z M38.2776828,13.8359705 L40.0113966,13.8359705 L47.6941286,24.6327266 L55.5468325,13.8359705 L66.2277902,0.12160736 L48.6799657,25.7674176 L57.7224734,38.3865561 L55.920771,38.3865561 L47.6941286,26.9021085 L39.4334919,38.3865561 L37.6657838,38.3865561 L46.77628,25.7674176 L38.2776828,13.8359705 Z M58.368367,15.1425842 L58.368367,13.8359705 L76.963298,13.8359705 L76.963298,15.1425843 L68.3967118,15.1425843 L68.3967118,38.3865561 L66.9009586,38.3865561 L66.9009586,15.1425843 L58.368367,15.1425842 Z"/>
    <polygon points=".085 13.836 1.955 13.836 27.737 52.705 17.082 38.387 1.649 15.693 1.581 38.387 .085 38.387"/>
    <path d="M77.518153,36.9286186 C77.8177653,36.9286186 78.0363061,36.6708526 78.0363061,36.3377399 C78.0363061,36.0046268 77.8177653,35.7468608 77.518153,35.7468608 C77.2220657,35.7468608 77,36.0046268 77,36.3377399 C77,36.6708526 77.2220657,36.9286186 77.518153,36.9286186 Z M78.9421926,35.3740912 C78.9421926,36.357568 79.5731407,37 80.4931267,37 C81.4730349,37 82.0652096,36.3377399 82.0652096,35.1877065 L82.0652096,31.1387971 L81.2756432,31.1387971 L81.2756432,35.1837409 C81.2756432,35.8222075 80.9901304,36.163252 80.4860768,36.163252 C80.0348962,36.163252 79.728234,35.8460013 79.7176595,35.3740912 L78.9421926,35.3740912 Z M83.0979908,35.3225382 C83.1543886,36.3456709 83.9122312,37 85.0401833,37 C86.2456821,37 87,36.3139461 87,35.2194317 C87,34.3588895 86.5699684,33.883014 85.5266128,33.6093853 L84.9661616,33.4547258 C84.3034896,33.2802379 84.0356011,33.0462657 84.0356011,32.6378059 C84.0356011,32.1222735 84.4515332,31.7851951 85.0754318,31.7851951 C85.6676066,31.7851951 86.0764894,32.1143425 86.1505111,32.6417712 L86.9189284,32.6417712 C86.8731054,31.6781229 86.1187875,31 85.0860064,31 C83.9756786,31 83.2354599,31.6781229 83.2354599,32.6972902 C83.2354599,33.5380039 83.6549173,34.0376735 84.5749032,34.2795771 L85.2305251,34.4580304 C85.9037717,34.636484 86.1998591,34.8982157 86.1998591,35.334435 C86.1998591,35.8420359 85.734579,36.2108395 85.1001058,36.2108395 C84.4198097,36.2108395 83.9474797,35.8658297 83.8805076,35.3225382 L83.0979908,35.3225382 Z"/>
  </g>
</svg>
