<svg xmlns="http://www.w3.org/2000/svg" width="130" height="130" viewBox="0 0 130 130">
  <path fill="#090" d="M158.727258,12 L155.673179,17.6991692 L132.054079,60.6252046 L129,66.0443054 L132.054079,71.4589608 L155.673179,112.997991 L158.865069,118.692715 L220.689052,118.692715 L223.74313,112.4423 L241.387438,76.8780616 L249.304926,60.7630162 L231.384996,60.7630162 L186.236196,60.9008276 C180.363651,60.820808 174.962332,66.1421072 174.962332,72.014652 C174.962332,77.8871968 180.363651,83.2129416 186.236196,83.1284764 L213.465066,82.990665 L206.796771,96.4650658 L171.788224,96.4650658 L154.419539,65.9020486 L171.926036,34.2276488 L209.166239,34.2276488 L217.848358,52.0453322 L240.218264,52.0453322 L226.117044,18.2548604 L223.05852,12 L158.727258,12" transform="translate(-125)"/>
</svg>
