<svg xmlns="http://www.w3.org/2000/svg" width="149" height="149" viewBox="0 0 149 149">
  <g fill="none">
    <path fill="#2DC100" d="M149,126.65 C149,138.994153 138.993657,149 126.65,149 L22.35,149 C10.0058467,149 0,138.994153 0,126.65 L0,22.35 C0,10.0063433 10.0063433,0 22.35,0 L126.65,0 C138.993657,0 149,10.0063433 149,22.35 L149,126.65 Z"/>
    <g fill="#FFF" transform="translate(9 18)">
      <path d="M90.2075954,37.1086726 C78.1935115,37.7355752 67.746374,41.3730973 59.2646183,49.5912212 C50.6950382,57.8940885 46.7831298,68.0682478 47.8524046,80.6806372 C43.1565267,80.099823 38.8794275,79.460531 34.5780153,79.0987611 C33.0924427,78.9738761 31.3295038,79.151292 30.0711832,79.8604602 C25.894313,82.2144425 21.8901145,84.8722124 17.1441221,87.8352566 C18.0149237,83.9013805 18.5785878,80.4566372 19.5764122,77.1432212 C20.3102672,74.7079646 19.9703817,73.3525664 17.7241603,71.7667257 C3.30209924,61.5970265 -2.7771374,46.3774159 1.77236641,30.7083186 C5.98148855,16.2127434 16.3179771,7.42173451 30.3629389,2.83915044 C49.5329771,-3.41500885 71.0767557,2.96453097 82.7335878,18.1658053 C86.9437023,23.6567788 89.5253435,29.8197522 90.2075954,37.1086726 Z M34.9144275,32.2262655 C35.0250763,29.360354 32.5387023,26.7784071 29.5854198,26.692177 C26.5616794,26.603469 24.0748092,28.9113628 23.9864885,31.887292 C23.8971756,34.9033628 26.2069084,37.3202832 29.2524809,37.3975929 C32.2717557,37.4739115 34.8027863,35.1630442 34.9144275,32.2262655 Z M63.7630153,26.6901947 C60.7988168,26.744708 58.294084,29.2661947 58.3466794,32.1435044 C58.4007634,35.1258761 60.8578626,37.4590442 63.905916,37.4223717 C66.9619084,37.3856991 69.2795802,35.0277522 69.2508015,31.9824425 C69.2254962,28.9931327 66.779313,26.6351858 63.7630153,26.6901947 Z"/>
      <path d="M117.198969,111.915752 C113.394733,110.223858 109.905076,107.685522 106.189656,107.297982 C102.488626,106.911929 98.5980534,109.044389 94.7258397,109.439858 C82.9310687,110.645097 72.3643511,107.361912 63.651374,99.3142655 C47.0803435,84.0059469 49.4481298,60.5335221 68.6201527,47.988531 C85.6595802,36.8390796 110.648855,40.5558938 122.662443,56.0262655 C133.146298,69.5257345 131.914275,87.4457345 119.115725,98.7864779 C115.412214,102.068673 114.079466,104.769558 116.455687,109.096425 C116.894313,109.895292 116.944427,110.906761 117.198969,111.915752 Z M73.8950763,70.0401416 C76.3169466,70.0426195 78.3111069,68.1495221 78.4029008,65.760354 C78.4996565,63.2309381 76.4628244,61.1093805 73.9268321,61.0989735 C71.416145,61.0875752 69.3128244,63.2388673 69.4001527,65.7306195 C69.4825191,68.1113628 71.4905725,70.0371681 73.8950763,70.0401416 Z M101.81084,61.108885 C99.460916,61.092531 97.4642748,63.0138761 97.3685115,65.3852035 C97.2667939,67.9210619 99.2401145,70.003469 101.752786,70.0099115 C104.183092,70.0178407 106.103321,68.1822301 106.191641,65.7667965 C106.285916,63.2249912 104.311603,61.1262301 101.81084,61.108885 Z"/>
    </g>
  </g>
</svg>
