<svg xmlns="http://www.w3.org/2000/svg" width="50" height="50" viewBox="0 0 50 50">
  <path fill="#1E9D4D" fill-rule="evenodd" d="M25,50 C21.2243902,50 9.86242182,50 4.34425237,49.9332859 C3.04644254,49.9175955 1.33537601,49.5779414 0.79464332,48.8991874 C0.06572265,47.9842108 1.60267885e-14,46.7768302 1.00396095e-14,45.1080837 C0,42.1857372 0,29.576439 0,25 C0,11.1928813 11.1928813,0 25,0 C38.8071187,0 50,11.1928813 50,25 C50,38.8071187 38.8071187,50 25,50 Z M25,44 C35.4934102,44 44,35.4934102 44,25 C44,14.5065898 35.4934102,6 25,6 C14.5065898,6 6,14.5065898 6,25 C6,35.4934102 14.5065898,44 25,44 Z"/>
</svg>
